<svg width="77" height="77" viewBox="0 0 77 77" fill="none" xmlns="http://www.w3.org/2000/svg">
<path d="M35.9407 51.1072C36.6358 51.8023 37.5054 52.1348 38.5493 52.1044C39.5933 52.0741 40.4616 51.7101 41.1542 51.0124C41.8493 50.3173 42.1969 49.4326 42.1969 48.3583C42.1969 47.2839 41.8493 46.3992 41.1542 45.7041L37.7417 42.2916H49.9698C51.0441 42.2916 51.9289 41.9289 52.624 41.2034C53.3191 40.4779 53.6667 39.5768 53.6667 38.4999C53.6667 37.4256 53.3027 36.5257 52.5747 35.8003C51.8467 35.0748 50.9468 34.7108 49.875 34.7083H37.7417L41.249 31.201C41.9441 30.5058 42.2765 29.6363 42.2462 28.5923C42.2159 27.5483 41.8519 26.68 41.1542 25.9874C40.4591 25.2923 39.5743 24.9447 38.5 24.9447C37.4257 24.9447 36.541 25.2923 35.8459 25.9874L25.9875 35.8458C25.2924 36.5409 24.9448 37.4256 24.9448 38.4999C24.9448 39.5742 25.2924 40.4589 25.9875 41.1541L35.9407 51.1072ZM38.5 76.4166C33.2549 76.4166 28.3257 75.4206 23.7125 73.4288C19.0993 71.4369 15.0865 68.7359 11.674 65.326C8.2615 61.9135 5.56057 57.9006 3.57121 53.2874C1.58185 48.6742 0.585902 43.7451 0.583374 38.4999C0.583374 33.2548 1.57932 28.3256 3.57121 23.7124C5.5631 19.0992 8.26403 15.0864 11.674 11.6739C15.0865 8.26138 19.0993 5.56045 23.7125 3.57109C28.3257 1.58172 33.2549 0.58578 38.5 0.583252C43.7452 0.583252 48.6743 1.5792 53.2875 3.57109C57.9007 5.56297 61.9136 8.26391 65.3261 11.6739C68.7386 15.0864 71.4408 19.0992 73.4327 23.7124C75.4246 28.3256 76.4192 33.2548 76.4167 38.4999C76.4167 43.7451 75.4208 48.6742 73.4289 53.2874C71.437 57.9006 68.7361 61.9135 65.3261 65.326C61.9136 68.7385 57.9007 71.4407 53.2875 73.4325C48.6743 75.4244 43.7452 76.4191 38.5 76.4166Z" fill="#2B2B2B"/>
</svg>
