<svg width="91" height="91" viewBox="0 0 91 91" fill="none" xmlns="http://www.w3.org/2000/svg">
<path d="M68.25 11.375C71.2668 11.375 74.1601 12.5734 76.2933 14.7067C78.4266 16.8399 79.625 19.7332 79.625 22.75V68.25C79.625 71.2668 78.4266 74.1601 76.2933 76.2933C74.1601 78.4266 71.2668 79.625 68.25 79.625H22.75C19.7332 79.625 16.8399 78.4266 14.7067 76.2933C12.5734 74.1601 11.375 71.2668 11.375 68.25V22.75C11.375 19.7332 12.5734 16.8399 14.7067 14.7067C16.8399 12.5734 19.7332 11.375 22.75 11.375H68.25ZM68.25 18.9583H22.75C21.7444 18.9583 20.78 19.3578 20.0689 20.0689C19.3578 20.78 18.9583 21.7444 18.9583 22.75V68.25C18.9583 69.2556 19.3578 70.22 20.0689 70.9311C20.78 71.6422 21.7444 72.0417 22.75 72.0417H68.25C69.2556 72.0417 70.22 71.6422 70.9311 70.9311C71.6422 70.22 72.0417 69.2556 72.0417 68.25V22.75C72.0417 21.7444 71.6422 20.78 70.9311 20.0689C70.22 19.3578 69.2556 18.9583 68.25 18.9583ZM30.3333 37.9167C31.262 37.9168 32.1584 38.2578 32.8524 38.8749C33.5464 39.492 33.9898 40.3424 34.0985 41.2647L34.125 41.7083V60.6667C34.1239 61.6331 33.7539 62.5626 33.0905 63.2654C32.427 63.9681 31.5203 64.391 30.5555 64.4476C29.5908 64.5042 28.6408 64.1904 27.8997 63.5701C27.1586 62.9498 26.6824 62.0699 26.5682 61.1103L26.5417 60.6667V41.7083C26.5417 40.7027 26.9411 39.7383 27.6522 39.0272C28.3633 38.3161 29.3277 37.9167 30.3333 37.9167ZM41.7083 34.125C42.5963 34.1249 43.4562 34.4364 44.138 35.0053C44.8198 35.5742 45.2804 36.3643 45.4393 37.238C46.2023 36.7955 46.9911 36.3992 47.8015 36.0512C50.3306 34.9705 54.1185 34.3753 57.5385 35.4483C59.332 36.017 61.133 37.0787 62.4677 38.8873C63.6621 40.4988 64.3067 42.4591 64.4356 44.662L64.4583 45.5V60.6667C64.4573 61.6331 64.0872 62.5626 63.4238 63.2654C62.7604 63.9681 61.8536 64.391 60.8889 64.4476C59.9241 64.5042 58.9741 64.1904 58.2331 63.5701C57.492 62.9498 57.0157 62.0699 56.9015 61.1103L56.875 60.6667V45.5C56.875 44.2488 56.5717 43.6648 56.3745 43.3956C56.0915 43.0436 55.7015 42.7933 55.2635 42.6828C53.944 42.2657 52.0444 42.4856 50.7818 43.024C48.886 43.8355 47.1494 45.1095 45.9664 46.2887L45.5 46.7892V60.6667C45.4989 61.6331 45.1289 62.5626 44.4655 63.2654C43.802 63.9681 42.8953 64.391 41.9305 64.4476C40.9658 64.5042 40.0158 64.1904 39.2747 63.5701C38.5336 62.9498 38.0574 62.0699 37.9432 61.1103L37.9167 60.6667V37.9167C37.9167 36.9111 38.3161 35.9466 39.0272 35.2356C39.7383 34.5245 40.7027 34.125 41.7083 34.125ZM30.3333 26.5417C31.3389 26.5417 32.3034 26.9411 33.0144 27.6522C33.7255 28.3633 34.125 29.3277 34.125 30.3333C34.125 31.3389 33.7255 32.3034 33.0144 33.0144C32.3034 33.7255 31.3389 34.125 30.3333 34.125C29.3277 34.125 28.3633 33.7255 27.6522 33.0144C26.9411 32.3034 26.5417 31.3389 26.5417 30.3333C26.5417 29.3277 26.9411 28.3633 27.6522 27.6522C28.3633 26.9411 29.3277 26.5417 30.3333 26.5417Z" fill="#FFD600"/>
</svg>
