<svg width="115" height="115" viewBox="0 0 115 115" fill="none" xmlns="http://www.w3.org/2000/svg">
<circle cx="57.5" cy="57.5" r="54" stroke="#2B2B2B" stroke-width="7"/>
<g filter="url(#filter0_d_128_36)">
<path d="M80.25 23.375C83.2668 23.375 86.1601 24.5734 88.2933 26.7067C90.4266 28.8399 91.625 31.7332 91.625 34.75V80.25C91.625 83.2668 90.4266 86.1601 88.2933 88.2933C86.1601 90.4266 83.2668 91.625 80.25 91.625H34.75C31.7332 91.625 28.8399 90.4266 26.7067 88.2933C24.5734 86.1601 23.375 83.2668 23.375 80.25V34.75C23.375 31.7332 24.5734 28.8399 26.7067 26.7067C28.8399 24.5734 31.7332 23.375 34.75 23.375H80.25ZM80.25 30.9583H34.75C33.7444 30.9583 32.78 31.3578 32.0689 32.0689C31.3578 32.78 30.9583 33.7444 30.9583 34.75V80.25C30.9583 81.2556 31.3578 82.22 32.0689 82.9311C32.78 83.6422 33.7444 84.0417 34.75 84.0417H80.25C81.2556 84.0417 82.22 83.6422 82.9311 82.9311C83.6422 82.22 84.0417 81.2556 84.0417 80.25V34.75C84.0417 33.7444 83.6422 32.78 82.9311 32.0689C82.22 31.3578 81.2556 30.9583 80.25 30.9583ZM42.3333 49.9167C43.262 49.9168 44.1584 50.2578 44.8524 50.8749C45.5464 51.492 45.9898 52.3424 46.0985 53.2647L46.125 53.7083V72.6667C46.1239 73.6331 45.7539 74.5626 45.0905 75.2654C44.427 75.9681 43.5203 76.391 42.5555 76.4476C41.5908 76.5042 40.6408 76.1904 39.8997 75.5701C39.1586 74.9498 38.6824 74.0699 38.5682 73.1103L38.5417 72.6667V53.7083C38.5417 52.7027 38.9411 51.7383 39.6522 51.0272C40.3633 50.3161 41.3277 49.9167 42.3333 49.9167ZM53.7083 46.125C54.5963 46.1249 55.4562 46.4364 56.138 47.0053C56.8198 47.5742 57.2804 48.3643 57.4393 49.238C58.2023 48.7955 58.9911 48.3992 59.8015 48.0512C62.3306 46.9705 66.1185 46.3753 69.5385 47.4483C71.332 48.017 73.133 49.0787 74.4677 50.8873C75.6621 52.4988 76.3067 54.4591 76.4356 56.662L76.4583 57.5V72.6667C76.4573 73.6331 76.0872 74.5626 75.4238 75.2654C74.7604 75.9681 73.8536 76.391 72.8889 76.4476C71.9241 76.5042 70.9741 76.1904 70.2331 75.5701C69.492 74.9498 69.0157 74.0699 68.9015 73.1103L68.875 72.6667V57.5C68.875 56.2488 68.5717 55.6648 68.3745 55.3956C68.0915 55.0436 67.7015 54.7933 67.2635 54.6828C65.944 54.2657 64.0444 54.4856 62.7818 55.024C60.886 55.8355 59.1494 57.1095 57.9664 58.2887L57.5 58.7892V72.6667C57.4989 73.6331 57.1289 74.5626 56.4655 75.2654C55.802 75.9681 54.8953 76.391 53.9305 76.4476C52.9658 76.5042 52.0158 76.1904 51.2747 75.5701C50.5336 74.9498 50.0574 74.0699 49.9432 73.1103L49.9167 72.6667V49.9167C49.9167 48.9111 50.3161 47.9466 51.0272 47.2356C51.7383 46.5245 52.7027 46.125 53.7083 46.125ZM42.3333 38.5417C43.3389 38.5417 44.3034 38.9411 45.0144 39.6522C45.7255 40.3633 46.125 41.3277 46.125 42.3333C46.125 43.3389 45.7255 44.3034 45.0144 45.0144C44.3034 45.7255 43.3389 46.125 42.3333 46.125C41.3277 46.125 40.3633 45.7255 39.6522 45.0144C38.9411 44.3034 38.5417 43.3389 38.5417 42.3333C38.5417 41.3277 38.9411 40.3633 39.6522 39.6522C40.3633 38.9411 41.3277 38.5417 42.3333 38.5417Z" fill="#2B2B2B"/>
</g>
<defs>
<filter id="filter0_d_128_36" x="19.375" y="23.375" width="76.25" height="76.25" filterUnits="userSpaceOnUse" color-interpolation-filters="sRGB">
<feFlood flood-opacity="0" result="BackgroundImageFix"/>
<feColorMatrix in="SourceAlpha" type="matrix" values="0 0 0 0 0 0 0 0 0 0 0 0 0 0 0 0 0 0 127 0" result="hardAlpha"/>
<feOffset dy="4"/>
<feGaussianBlur stdDeviation="2"/>
<feComposite in2="hardAlpha" operator="out"/>
<feColorMatrix type="matrix" values="0 0 0 0 0 0 0 0 0 0 0 0 0 0 0 0 0 0 0.25 0"/>
<feBlend mode="normal" in2="BackgroundImageFix" result="effect1_dropShadow_128_36"/>
<feBlend mode="normal" in="SourceGraphic" in2="effect1_dropShadow_128_36" result="shape"/>
</filter>
</defs>
</svg>
