<svg width="115" height="115" viewBox="0 0 115 115" fill="none" xmlns="http://www.w3.org/2000/svg">
<circle cx="57.5" cy="57.5" r="54" stroke="#2B2B2B" stroke-width="7"/>
<g clip-path="url(#clip0_134_54)">
<g filter="url(#filter0_d_134_54)">
<path d="M87.8333 27.1665C89.7465 27.1659 91.5892 27.8885 92.9921 29.1893C94.3949 30.4902 95.2542 32.2733 95.3977 34.1811L95.4167 34.7498V80.2498C95.4173 82.163 94.6947 84.0057 93.3938 85.4086C92.093 86.8114 90.3099 87.6707 88.4021 87.8142L87.8333 87.8332H27.1667C25.2535 87.8338 23.4108 87.1112 22.0079 85.8103C20.6051 84.5094 19.7458 82.7264 19.6023 80.8186L19.5833 80.2498V34.7498C19.5827 32.8367 20.3053 30.9939 21.6062 29.5911C22.9071 28.1882 24.6901 27.329 26.5979 27.1855L27.1667 27.1665H87.8333ZM87.8333 40.1113L61.5192 66.4254C60.4528 67.4905 59.0072 68.0887 57.5 68.0887C55.9928 68.0887 54.5473 67.4905 53.4808 66.4254L27.1667 40.1113V80.2498H87.8333V40.1113ZM82.4719 34.7498H32.5281L57.5 59.7218L82.4719 34.7498Z" fill="#2B2B2B"/>
</g>
</g>
<defs>
<filter id="filter0_d_134_54" x="15.5833" y="27.1665" width="83.8333" height="68.6665" filterUnits="userSpaceOnUse" color-interpolation-filters="sRGB">
<feFlood flood-opacity="0" result="BackgroundImageFix"/>
<feColorMatrix in="SourceAlpha" type="matrix" values="0 0 0 0 0 0 0 0 0 0 0 0 0 0 0 0 0 0 127 0" result="hardAlpha"/>
<feOffset dy="4"/>
<feGaussianBlur stdDeviation="2"/>
<feComposite in2="hardAlpha" operator="out"/>
<feColorMatrix type="matrix" values="0 0 0 0 0 0 0 0 0 0 0 0 0 0 0 0 0 0 0.25 0"/>
<feBlend mode="normal" in2="BackgroundImageFix" result="effect1_dropShadow_134_54"/>
<feBlend mode="normal" in="SourceGraphic" in2="effect1_dropShadow_134_54" result="shape"/>
</filter>
<clipPath id="clip0_134_54">
<rect width="91" height="91" fill="white" transform="translate(12 12)"/>
</clipPath>
</defs>
</svg>
