<svg width="91" height="92" viewBox="0 0 91 92" fill="none" xmlns="http://www.w3.org/2000/svg">
<g clip-path="url(#clip0_128_31)" filter="url(#filter0_d_128_31)">
<path fill-rule="evenodd" clip-rule="evenodd" d="M30.9855 60.0182C45.5645 74.5971 59.0742 76.1934 63.0403 76.3413C67.8329 76.5157 72.7242 72.6027 74.8399 68.5949C71.4654 64.6364 67.0708 61.5652 62.2554 58.2361C59.4192 61.0722 55.9233 66.3427 51.2596 64.4544C48.6092 63.389 42.0648 60.3746 36.3469 54.653C30.6253 48.9351 27.6147 42.3907 26.5417 39.7441C24.6534 35.0766 29.939 31.5693 32.779 28.7293C29.4499 23.8381 26.4317 19.3298 22.4808 16.1258C18.4161 18.2492 14.4804 23.1025 14.6586 27.9596C14.8065 31.9257 16.4028 45.4354 30.9855 60.0182ZM62.7597 83.917C57.2997 83.7161 41.8259 81.5814 25.6203 65.3758C9.41852 49.174 7.28381 33.704 7.07906 28.2402C6.77573 19.9137 13.1533 11.8261 20.5205 8.66762C21.4077 8.28454 22.3792 8.13869 23.3397 8.24438C24.3003 8.35007 25.2168 8.70368 25.9995 9.2705C32.0965 13.7181 36.3014 20.4559 39.9149 25.7339C40.6666 26.8314 41.011 28.1572 40.8884 29.4818C40.7658 30.8064 40.1841 32.0464 39.2438 32.9874L34.1023 38.1327C35.2966 40.7679 37.7271 45.3103 41.7084 49.2915C45.6896 53.2728 50.232 55.7032 52.871 56.8976L58.0087 51.7561C58.9533 50.8138 60.1985 50.2328 61.5275 50.1144C62.8564 49.9959 64.1848 50.3474 65.2811 51.1077C70.6653 54.8387 76.9898 58.983 81.6005 64.8867C82.2133 65.675 82.6031 66.6134 82.7292 67.6039C82.8553 68.5944 82.7129 69.6006 82.3171 70.5173C79.1435 77.9224 71.1127 84.2242 62.7597 83.917Z" fill="#FFD600"/>
</g>
<defs>
<filter id="filter0_d_128_31" x="-4" y="0" width="99" height="99" filterUnits="userSpaceOnUse" color-interpolation-filters="sRGB">
<feFlood flood-opacity="0" result="BackgroundImageFix"/>
<feColorMatrix in="SourceAlpha" type="matrix" values="0 0 0 0 0 0 0 0 0 0 0 0 0 0 0 0 0 0 127 0" result="hardAlpha"/>
<feOffset dy="4"/>
<feGaussianBlur stdDeviation="2"/>
<feComposite in2="hardAlpha" operator="out"/>
<feColorMatrix type="matrix" values="0 0 0 0 0 0 0 0 0 0 0 0 0 0 0 0 0 0 0.25 0"/>
<feBlend mode="normal" in2="BackgroundImageFix" result="effect1_dropShadow_128_31"/>
<feBlend mode="normal" in="SourceGraphic" in2="effect1_dropShadow_128_31" result="shape"/>
</filter>
<clipPath id="clip0_128_31">
<rect width="91" height="91" fill="white"/>
</clipPath>
</defs>
</svg>
