<svg width="115" height="115" viewBox="0 0 115 115" fill="none" xmlns="http://www.w3.org/2000/svg">
<circle cx="57.5" cy="57.5" r="54" stroke="#2B2B2B" stroke-width="7"/>
<g clip-path="url(#clip0_131_46)">
<g filter="url(#filter0_d_131_46)">
<path fill-rule="evenodd" clip-rule="evenodd" d="M42.9855 72.0182C57.5645 86.5971 71.0742 88.1934 75.0403 88.3413C79.8329 88.5157 84.7242 84.6027 86.8399 80.5949C83.4654 76.6364 79.0708 73.5652 74.2554 70.2361C71.4192 73.0722 67.9233 78.3427 63.2596 76.4544C60.6092 75.389 54.0648 72.3746 48.3469 66.653C42.6253 60.9351 39.6147 54.3907 38.5417 51.7441C36.6534 47.0766 41.939 43.5693 44.779 40.7293C41.4499 35.8381 38.4317 31.3298 34.4808 28.1258C30.4161 30.2492 26.4804 35.1025 26.6586 39.9596C26.8065 43.9257 28.4028 57.4354 42.9855 72.0182ZM74.7597 95.917C69.2997 95.7161 53.8259 93.5814 37.6203 77.3758C21.4185 61.174 19.2838 45.704 19.0791 40.2402C18.7757 31.9137 25.1533 23.8261 32.5205 20.6676C33.4077 20.2845 34.3792 20.1387 35.3397 20.2444C36.3003 20.3501 37.2168 20.7037 37.9995 21.2705C44.0965 25.7181 48.3014 32.4559 51.9149 37.7339C52.6666 38.8314 53.011 40.1572 52.8884 41.4818C52.7658 42.8064 52.1841 44.0464 51.2438 44.9874L46.1023 50.1327C47.2966 52.7679 49.7271 57.3103 53.7084 61.2915C57.6896 65.2728 62.232 67.7032 64.871 68.8976L70.0087 63.7561C70.9533 62.8138 72.1985 62.2328 73.5275 62.1144C74.8564 61.9959 76.1848 62.3474 77.2811 63.1077C82.6653 66.8387 88.9898 70.983 93.6005 76.8867C94.2133 77.675 94.6031 78.6134 94.7292 79.6039C94.8553 80.5944 94.7129 81.6006 94.3171 82.5173C91.1435 89.9224 83.1127 96.2242 74.7597 95.917Z" fill="#2B2B2B"/>
</g>
</g>
<defs>
<filter id="filter0_d_131_46" x="15.0687" y="20.2109" width="83.7051" height="83.7168" filterUnits="userSpaceOnUse" color-interpolation-filters="sRGB">
<feFlood flood-opacity="0" result="BackgroundImageFix"/>
<feColorMatrix in="SourceAlpha" type="matrix" values="0 0 0 0 0 0 0 0 0 0 0 0 0 0 0 0 0 0 127 0" result="hardAlpha"/>
<feOffset dy="4"/>
<feGaussianBlur stdDeviation="2"/>
<feComposite in2="hardAlpha" operator="out"/>
<feColorMatrix type="matrix" values="0 0 0 0 0 0 0 0 0 0 0 0 0 0 0 0 0 0 0.25 0"/>
<feBlend mode="normal" in2="BackgroundImageFix" result="effect1_dropShadow_131_46"/>
<feBlend mode="normal" in="SourceGraphic" in2="effect1_dropShadow_131_46" result="shape"/>
</filter>
<clipPath id="clip0_131_46">
<rect width="91" height="91" fill="white" transform="translate(12 12)"/>
</clipPath>
</defs>
</svg>
